<svg xmlns="http://www.w3.org/2000/svg" height="16" width="16" viewBox="0 0 512 512"><g transform-origin="center"><animateTransform attributeName="transform" attributeType="XML" type="rotate" from="0 0 0" to="0 0 359" dur="10s" repeatCount="indefinite" /><path opacity="1" fill="#1E3050" d="M156.92 403.08a48 48 0 1 0 -96 0 48 48 0 1 0 96 0zM304 464a48 48 0 1 0 -96 0 48 48 0 1 0 96 0zM451.08 403.08a48 48 0 1 0 -96 0 48 48 0 1 0 96 0zM512 256a48 48 0 1 0 -96 0 48 48 0 1 0 96 0zM451.08 108.92a48 48 0 1 0 -96 0 48 48 0 1 0 96 0z"/><path opacity="1" fill="#ff0000" d="M304 48a48 48 0 1 0 -96 0 48 48 0 1 0 96 0zM156.9 108.9a48 48 0 1 0 -96 0 48 48 0 1 0 96 0zM48 304a48 48 0 1 0 0-96 48 48 0 1 0 0 96z"/></g></svg>
